<svg viewBox="0 0 200 200">
  <defs>
    <filter height="1" y="0" width="1" x="0" id="f1" style="color-interpolation-filters:sRGB">
      <feGaussianBlur id="feGaussianBlur4233" stdDeviation="1.9558193" />
    </filter>
    <filter height="4" y="0" width="4" x="0" id="f2" style="color-interpolation-filters:sRGB">
      <feGaussianBlur id="feGaussianBlur4241" stdDeviation="0.55880553" />
    </filter>
    <path d="M 0,0 C 25,0 25,70 0,70 -25,70 -25,0 0,0 Z" transform="translate(20,0)" id="d0">
    <path d="M 0,0 5,0 5,70 0,70 Z" transform="translate(15,0)" id="d1">
    <path d="M 0,0 C 0,-25 40,-25 40,0 40,0 40,10 25,15 7,20 0,50 0,50 l 40,0 0,0" transform="translate(0,20)" id="d2">

  </defs>

  <g>
    <use xlink:href="#d0" style="fill:none;stroke:#fa8a00;stroke-width:4;filter:url(#f1)" />
    <use xlink:href="#d0" style="fill:none;stroke:#f6cf0d;stroke-width:4;filter:url(#f2)" />
    <use xlink:href="#d1" />
    <use xlink:href="#d2" />
  </g>
</svg>
