<?xml version="1.0" encoding="UTF-8" standalone="no"?>
<svg
   xmlns:dc="http://purl.org/dc/elements/1.1/"
   xmlns:cc="http://creativecommons.org/ns#"
   xmlns:rdf="http://www.w3.org/1999/02/22-rdf-syntax-ns#"
   xmlns:svg="http://www.w3.org/2000/svg"
   xmlns="http://www.w3.org/2000/svg"
   id="svg2"
   height="84.019882"
   width="97.193596"
   version="1.1">
  <defs
     id="defs19">
    <filter
       height="1.1319216"
       y="-0.065960862"
       width="1.2312402"
       x="-0.11562006"
       id="filter4231"
       style="color-interpolation-filters:sRGB">
      <feGaussianBlur
         id="feGaussianBlur4233"
         stdDeviation="1.9558193" />
    </filter>
    <filter
       height="1.037692"
       y="-0.01884596"
       width="1.0660686"
       x="-0.033034302"
       id="filter4239"
       style="color-interpolation-filters:sRGB">
      <feGaussianBlur
         id="feGaussianBlur4241"
         stdDeviation="0.55880553" />
    </filter>
  </defs>
  <path
     id="four"
     d="m 85.316574,73.949604 -2.482,0 2e-5,-67.3240039 -24.852995,52.1210039 38.711995,-0.0932 0,2.5308 -42.559996,-0.0932 L 82.502594,0.5 l 2.91,0 -0.0964,73.450004 z"
     style="fill:#00ffff;stroke:#000000;stroke-opacity:1" />
  <g
     transform="translate(65.16203,5.7472621)"
     id="twoglow">
    <path
       style="fill:#f9f800;fill-opacity:1;stroke:#fa8a00;stroke-width:4.80000019;stroke-miterlimit:4;stroke-dasharray:none;stroke-opacity:1;filter:url(#filter4231)"
       d="m -56.914664,21.248337 c -1.9612,0.10015 6e-5,0.22093 -2.5289,0.24855 -0.53502,-14.3309995 11.388,-19.1099995 20.271,-19.0809995 8.8835,0.0291 19.185,2.7721 19.064,18.3019995 -0.12145,15.53 -13.157,18 -18.389,20.287 -6.1905,2.7518 -10.162,6.2101 -14.332,11.219 -4.1699,5.009095 -4.8793,18.862995 -4.8793,18.862995 l 37.839,0.29504 -0.0892,2.1493 c 0,0 -30.653,0.18501 -40.509,-0.17569 0.38652,-11.285 1.0239,-12.487 2.5597,-16.880995 1.9079,-5.746 8.1186,-13.654 18.463,-17.968 5.2443,-2.1869 16.673,-5.8646 16.719,-17.693 0.0465,-11.8279995 -8.4515,-15.8239995 -16.446,-15.6029995 -7.9941,0.22081 -17.942,6.1355995 -17.742,16.0369995 z"
       id="two" />
    <path
       style="fill:#f6cf0d;fill-opacity:1;stroke:none;stroke-opacity:1;filter:url(#filter4239)"
       d="m -56.916779,21.248116 c -1.9612,0.10015 6e-5,0.22093 -2.5289,0.24855 -0.53502,-14.3309999 11.388,-19.1099999 20.271,-19.0809999 8.8835,0.0291 19.185,2.7721 19.064,18.3019999 -0.12145,15.53 -13.157,18 -18.389,20.287 -6.1905,2.7518 -10.162,6.2101 -14.332,11.219 -4.1699,5.009095 -4.8793,18.862995 -4.8793,18.862995 l 37.839,0.29504 -0.0892,2.1493 c 0,0 -30.653,0.18501 -40.509,-0.17569 0.38652,-11.285 1.0239,-12.487 2.5597,-16.880995 1.9079,-5.746 8.1186,-13.654 18.463,-17.968 5.2443,-2.1869 16.673,-5.8646 16.719,-17.693 0.0465,-11.8279999 -8.4515,-15.8239999 -16.446,-15.6029999 -7.9941,0.22081 -17.942,6.1355999 -17.742,16.0369999 z"
       id="two-4" />
  </g>
</svg>
